<svg width="32" height="32" viewBox="0 0 32 32" xmlns="http://www.w3.org/2000/svg">
  <defs>
    <linearGradient id="bitcoinGradient" x1="0%" y1="0%" x2="100%" y2="100%">
      <stop offset="0%" style="stop-color:#ff1493;stop-opacity:1" />
      <stop offset="100%" style="stop-color:#ff69b4;stop-opacity:1" />
    </linearGradient>
  </defs>
  
  <!-- 3D cube effect -->
  <g transform="translate(4, 4)">
    <!-- Top face -->
    <path d="M0 8 L12 2 L24 8 L12 14 Z" fill="url(#bitcoinGradient)" opacity="0.9"/>
    
    <!-- Left face -->
    <path d="M0 8 L12 14 L12 26 L0 20 Z" fill="#ff1493" opacity="0.7"/>
    
    <!-- Right face -->
    <path d="M12 14 L24 8 L24 20 L12 26 Z" fill="#ff69b4" opacity="0.8"/>
    
    <!-- Bitcoin B symbol -->
    <g transform="translate(8, 12)" fill="white">
      <path d="M0 0 L0 8 M0 1 L4 1 Q5 1 5 2.5 Q5 4 4 4 L0 4 M0 4 L5 4 Q6 4 6 5.5 Q6 7 5 7 L0 7" 
            stroke="white" stroke-width="1" fill="none"/>
      <circle cx="2" cy="2.5" r="0.5" fill="white"/>
      <circle cx="2.5" cy="5.5" r="0.5" fill="white"/>
    </g>
  </g>
</svg>